<?xml version="1.0" encoding="utf-8"?>
<!-- Generator: Adobe Illustrator 16.0.0, SVG Export Plug-In . SVG Version: 6.00 Build 0)  -->
<!DOCTYPE svg PUBLIC "-//W3C//DTD SVG 1.1//EN" "http://www.w3.org/Graphics/SVG/1.1/DTD/svg11.dtd">
<svg version="1.1" id="Layer_1" xmlns="http://www.w3.org/2000/svg" xmlns:xlink="http://www.w3.org/1999/xlink" x="0px" y="0px"
	 width="512px" height="512px" viewBox="0 0 512 512" enable-background="new 0 0 512 512" xml:space="preserve">
<g>
	<path d="M421.988,188.721c-4.081,4.17-11.616,4.041-15.777-0.106l-1.438-1.379c-11.535-10.857-27.088-17.053-43.027-17.053
		c-16.812,0-32.607,6.542-44.545,18.48c-2.082,2.082-4.857,3.229-7.841,3.229c-0.017,0-0.017,0-0.017,0
		c-2.823,0-5.486-1.026-7.535-2.89l-0.403-0.412c-24.555-24.522-64.485-24.514-89.009-0.006l-0.58,0.588
		c-2.051,1.774-4.195,3.09-7.487,2.726c0,0-0.015,0-0.031,0c-2.856,0-5.663-1.176-7.745-3.266
		c-11.891-11.898-27.701-18.449-44.496-18.449c-14.035,0-27.782,4.799-38.77,13.367l-5.775,5.082
		c-2.856,2.855-6.179,3.283-7.891,3.291c0,0,0,0-0.015,0c-1.712,0-5.017-0.428-7.856-3.274c-9.682-9.681-25.363-9.673-35.043-0.008
		c-9.682,9.671-9.682,25.369,0,35.051c11.471,11.47,26.701,17.794,42.899,17.794c0.015,0,0.032,0,0.048,0
		c13.617-0.017,26.572-4.485,37.155-12.729l5.81-5.115c4.952-4.976,13.874-4.976,18.86,0c11.293,11.335,26.877,17.819,42.608,17.819
		c0.146-0.006,0.306-0.015,0.516,0c16.086,0,31.267-6.283,42.771-17.713l0.726-0.735c5.131-4.46,12.874-4.355,17.877,0.268
		l0.387,0.387c11.455,11.47,26.718,17.788,42.964,17.788c0,0,0.033,0,0.048,0c16.246,0,31.494-6.326,42.933-17.813
		c5.001-4.961,13.891-4.984,18.763-0.056l1.564,1.5c11.277,10.544,25.928,16.353,41.529,16.392c16.084,0,31.768-6.509,43.027-17.859
		c9.633-9.721,9.568-25.411-0.145-35.042C447.317,178.943,431.652,178.991,421.988,188.721z"/>
	<path d="M77.342,353.864H436.46c24.104,0,43.642-19.539,43.642-43.649c0-24.104-19.537-43.65-43.658-43.65H77.357
		c-24.12,0-43.657,19.546-43.657,43.65C33.7,334.325,53.237,353.864,77.342,353.864z"/>
	<path d="M465.195,392.73H48.01c-3.5,0-6.774,1.726-8.744,4.614c-1.983,2.879-2.403,6.559-1.145,9.825
		c13.891,35.84,42.335,66.817,79.943,89.018c10.84,6.397,23.038,9.705,35.621,9.705H359.52c12.503,0,24.846-3.339,35.622-9.705
		c37.608-22.201,66.052-53.177,79.942-89.018c1.26-3.266,0.839-6.945-1.145-9.833C471.97,394.456,468.695,392.73,465.195,392.73z"/>
	<path d="M51.302,150.976h411.229c2.275,0,4.422-1.081,5.762-2.913c1.354-1.831,1.758-4.195,1.08-6.364
		C446.416,67.638,360.084,12.541,256.925,12.541c-103.175,0-189.522,55.097-212.464,129.158c-0.677,2.169-0.273,4.534,1.081,6.364
		C46.883,149.895,49.026,150.976,51.302,150.976z M382.106,63.724c6.937,0,12.567,5.624,12.567,12.569s-5.631,12.567-12.567,12.567
		c-6.954,0-12.569-5.622-12.569-12.567S375.152,63.724,382.106,63.724z M307.665,90.83c7.472,0,13.537,6.058,13.537,13.544
		c0,7.469-6.065,13.535-13.537,13.535c-7.485,0-13.536-6.066-13.536-13.535C294.129,96.888,300.18,90.83,307.665,90.83z
		 M235.854,41.178c6.954,0,12.569,5.622,12.569,12.567s-5.615,12.569-12.569,12.569c-6.937,0-12.566-5.624-12.566-12.569
		S228.917,41.178,235.854,41.178z M146.668,63.724c9.503,0,17.215,7.704,17.215,17.214c0,9.511-7.712,17.215-17.215,17.215
		c-9.52,0-17.215-7.704-17.215-17.215C129.453,71.428,137.148,63.724,146.668,63.724z"/>
</g>
</svg>
