<?xml version="1.0" ?><svg style="enable-background:new 0 0 512 512;" version="1.1" viewBox="0 0 512 512" xml:space="preserve" xmlns="http://www.w3.org/2000/svg" xmlns:xlink="http://www.w3.org/1999/xlink"><style type="text/css">
	.st0{fill:#02472C;}
	.st1{fill:#14C667;}
	.st2{opacity:0.45;fill:#231F20;}
	.st3{fill:none;}
	.st4{fill:#FFFFFF;}
</style><g id="Edges"/><g id="Background_Bottom"><g><path class="st0" d="M492.3,443.1c0,34.2-27.7,61.9-61.9,61.9H80.7c-34.2,0-61.9-27.7-61.9-61.9V93.4c0-34.2,27.7-61.9,61.9-61.9    h349.7c34.2,0,61.9,27.7,61.9,61.9V443.1z"/></g></g><g id="Background"><path class="st1" d="M492.3,418.4c0,34.2-27.7,61.9-61.9,61.9H80.7c-34.2,0-61.9-27.7-61.9-61.9V68.6c0-34.2,27.7-61.9,61.9-61.9   h349.7c34.2,0,61.9,27.7,61.9,61.9V418.4z"/></g><g id="Shadow"><path class="st2" d="M492.3,260l-83.4-83.4c-0.2-0.3-0.4-0.6-0.6-0.9c-1.9-2.9-4.6-4-6.6-4.8c-0.8-0.3-1.4-0.6-1.4-0.6   c-18.3-7.2-83.8-42.1-83.8-42.1c-1.6-0.9-5.8-3.1-10.2-1.9c-4.6,1.3-7.2,5.7-8,7.2c-5,8.6-26.7,43.6-56.5,91.8l-29.2-47.5l0,0.3   l-0.1-0.3c-1.2-3.7-4.2-5-5.9-5.7c-0.3-0.1-0.5-0.2-0.8-0.4c-32-16-58.9-29.5-86-42.9c-3.9-2-8.1-3.7-11.6-1.5   c-4,2.5-3.9,9.4-3.8,11.6c0.1,10.2,0,181.7-0.1,189.6c0,1.5-0.2,6.4,2.7,11.2c1.5,2.5,3.4,4.3,5.2,5.5l135.3,135.3h185.8v-0.3   c32.8-1.5,59-28.6,59-61.8C492.3,415.8,492.3,260,492.3,260z"/></g><g id="Symbol"><g><polygon class="st3" points="212.5,287.6 293.7,327.1 212.6,195.1   "/><path class="st3" d="M398.3,179.2c-0.6-0.3-1.3-0.6-2.1-0.9c-9.2-4.6-18.5-9.3-27.8-13.9c-18.4-9.2-37.5-18.7-56.1-28.3    c-3.8-2-4.1-1.9-6.4,2c-14.7,24.3-54.1,88-58.9,95.8l58.6,95.5l93.1-150C398.6,179.3,398.4,179.3,398.3,179.2z"/><path class="st3" d="M201.8,179.8c-32-16-58.9-29.5-85.9-42.9c-1-0.5-1.8-0.8-2.3-1.1c-0.1,0.7-0.1,1.7-0.1,3.1    c0,16.4,0,142.8-0.1,189.6c0,5.7,1.7,8.4,7,11c17.5,8.6,54.1,26.9,54.9,27.3c7.4,3.7,14.7,7.4,22.1,11.1c3.2,1.6,4.8,2.2,5.7,2.4    c0.2-0.9,0.4-2.8,0.4-6.6l0.2-193.1c-0.2-0.1-0.5-0.2-0.7-0.3C202.5,180.2,202.1,180,201.8,179.8z"/><path class="st3" d="M401.2,373.3c0,0,0-126.7,0-180.8L312,336.2c45.4,23,81.7,41.2,87,43.7c0.9,0.4,1.4,0.5,1.6,0.6    c0.2-0.3,0.4-0.9,0.5-2c0.1-1,0.1-2.2,0.1-3.5C401.2,374.4,401.2,373.9,401.2,373.3z"/><path class="st4" d="M410.2,373.3c-0.2-127.4,0.3-192.5-0.4-194.7l-0.4-1c-0.3-0.7-0.7-1.3-1.2-1.9c-1.9-2.9-4.6-4-6.6-4.8    c-0.8-0.3-1.4-0.6-1.4-0.6c-18.3-7.2-83.8-42.1-83.8-42.1c-1.6-0.9-5.8-3.1-10.2-1.9c-4.6,1.3-7.2,5.7-8,7.2    c-5,8.6-26.7,43.6-56.5,91.8l-29.2-47.5l0,0.3l-0.1-0.3c-1.2-3.7-4.2-5-5.9-5.7c-0.3-0.1-0.5-0.2-0.8-0.4    c-32-16-58.9-29.5-86-42.9c-3.9-2-8.1-3.7-11.6-1.5c-4,2.5-3.9,9.4-3.8,11.6c0.1,10.2,0,181.7-0.1,189.6c0,1.5-0.2,6.4,2.7,11.2    c3,4.9,7.5,7,9.3,7.9c46.6,22.5,70.9,34.3,76.9,38.4c0,0,5,3.5,10.5,3.5c1.5,0,2.9-0.3,4.2-1.1c4.2-2.6,4.5-8.4,4.5-14.6    c0-25.4,0-50.7,0.1-76.1c0,0,179.5,88.7,182.8,90.4c0,0,2.7,1.4,5.6,1.4c1.4,0,2.7-0.3,3.9-0.9c1.6-0.8,4.3-4,5.3-8.8    C410.4,378.3,410.6,376.1,410.2,373.3z M203.4,373.7c0,3.8-0.2,5.7-0.4,6.6c-0.9-0.2-2.5-0.8-5.7-2.4c-7.4-3.7-14.7-7.4-22.1-11.1    c-0.8-0.4-37.4-18.7-54.9-27.3c-5.2-2.6-7-5.3-7-11c0.2-46.8,0.1-173.2,0.1-189.6c0-1.4,0-2.4,0.1-3.1c0.6,0.2,1.3,0.6,2.3,1.1    c27.1,13.4,53.9,26.9,85.9,42.9c0.4,0.2,0.8,0.4,1.2,0.5c0.2,0.1,0.5,0.2,0.7,0.3L203.4,373.7z M212.5,287.6l0.1-92.5l81,132    L212.5,287.6z M247,233.9c4.8-7.7,44.2-71.5,58.9-95.8c2.4-3.9,2.6-4,6.4-2c18.6,9.6,74.6,37.5,83.9,42.2c0.7,0.4,1.4,0.7,2.1,0.9    c0.2,0.1,0.4,0.1,0.5,0.2l-93.1,150L247,233.9z M401.2,378.4c-0.2,1.1-0.4,1.7-0.5,2c-0.3,0-0.8-0.2-1.6-0.6    c-5.3-2.4-41.6-20.6-87-43.7l89.2-143.6c0,54.1,0,180.8,0,180.8c0,0.5,0,1.1,0,1.6C401.3,376.2,401.3,377.4,401.2,378.4z"/></g></g></svg>