<?xml version="1.0" ?><!DOCTYPE svg  PUBLIC '-//W3C//DTD SVG 1.1//EN'  'http://www.w3.org/Graphics/SVG/1.1/DTD/svg11.dtd'><svg enable-background="new 0 0 50 50" id="Layer_1" version="1.1" viewBox="0 0 50 50" xml:space="preserve" xmlns="http://www.w3.org/2000/svg" xmlns:xlink="http://www.w3.org/1999/xlink"><path d="M45,1H5C2.8,1,1,2.8,1,5v40c0,2.2,1.8,4,4,4h40c2.2,0,4-1.8,4-4V5C49,2.8,47.2,1,45,1z" fill="#E71E27"/><path d="M34,14c-0.3-0.9-1-3.7-1.8-4c-1.4,0-2.6,0-4,0c-0.5,0-2,2.6-2.2,3c-1,2.3-1.3,3.6-2,6  c-0.7,2.5-1.4,5.2-2,8c-0.3-0.4-0.8-1.7-1-2c-1.3-2.5-1.7-4.5-3-7c-1.3-2.5-1.2-3.5-4-3c-0.7,0.1-2.4,0.7-3,1c-0.3,0.1-1,0.7-1,2  c0,5.9,0,11.4,1,17c0.6,4,0.2,4.5,4,3c0.2-0.1-0.2,0.1,0,0c2-1,3.2-1,3-2c-0.3-1.7-0.8-4.3-1-6c0.1,0-0.1,0,0,0c1,0,2.9,3.1,4,5  c0.9,1.6,2,2,3,2c4,0,5-1,5-2s0-3.2,0-4c0-2-0.1-7.3,0-8c1.7,5.5,3.4,10.7,5,16c0.3,0.9,1.9,1.3,2.9,1c1.8,0,3.3-0.7,3.1-1.4  c-2-6.9-2.8-11.2-4-16.6C35.3,18.9,35,18,34,14z" fill="#FFFFFF" id="M_1_"/></svg>